# xmcd
#
# Track frame offsets:
#	150
#	7545
#	17575
#	27332
#	39535
#	52230
#	63627
#	78797
#	90017
#	103635
#	115617
#	124767
#	134090
#	144637
#	157487
#	167837
#	177185
#	183590
#	197895
#	210815
#	218925
#	229667
#	242047
#	252630
#	269982
#	286620
#	298152
#	304217
#
# Disc length: 4280 seconds
#
# Revision: 1
# Processed by: cddbd v1.4PL0 Copyright (c) Steve Scherf et al.
# Submitted via: MusicWizard 6.0.0
#
DISCID=9c10b61c
DTITLE=Johnny Cash and June Carter - It's All In The Family
DYEAR=1999
DGENRE=Country
TTITLE0=Losin' You
TTITLE1=The Shadow Of A Lady
TTITLE2=Gatsby's Restaurant
TTITLE3=Once Before I Die
TTITLE4=The L&N Don't Stop Here Anymore
TTITLE5=East Virginia Blues
TTITLE6=Gone
TTITLE7=Appalachian Pride
TTITLE8=I Love You Sweetheart
TTITLE9=Another Borken Hearted Girl
TTITLE10=Big Battle Of Nashville
TTITLE11=Nasty Dan
TTITLE12=One And One Makes Two
TTITLE13=I Got A Boy
TTITLE14=Little Magic Glasses
TTITLE15=Miss Tara
TTITLE16=Dinosaur Song
TTITLE17=Tiger Whitehead
TTITLE18=Call Of The Wild
TTITLE19=Little Green Fountain
TTITLE20=Old Shep
TTITLE21=The Timber Man
TTITLE22=The Mystery Of Number 5
TTITLE23=Ben Dewberry's Final Run
TTITLE24=Grandfather's Clock
TTITLE25=Abacida
TTITLE26=Why Is A Fire Engine Red
TTITLE27=The Very Biggest Circus Of Them All
EXTD=Bear Family Records BCD 16132 AR
EXTT0=
EXTT1=
EXTT2=
EXTT3=
EXTT4=
EXTT5=
EXTT6=
EXTT7=
EXTT8=
EXTT9=
EXTT10=
EXTT11=
EXTT12=
EXTT13=
EXTT14=
EXTT15=
EXTT16=
EXTT17=
EXTT18=
EXTT19=
EXTT20=
EXTT21=
EXTT22=
EXTT23=
EXTT24=
EXTT25=
EXTT26=
EXTT27=
PLAYORDER=
